<?xml version="1.0" standalone="no"?>
<!DOCTYPE svg PUBLIC "-//W3C//DTD SVG 20010904//EN"
 "http://www.w3.org/TR/2001/REC-SVG-20010904/DTD/svg10.dtd">
<svg version="1.0" xmlns="http://www.w3.org/2000/svg"
 width="1000.000000pt" height="750.000000pt" viewBox="0 0 1000.000000 750.000000"
 preserveAspectRatio="xMidYMid meet">

<g transform="translate(0.000000,750.000000) scale(0.100000,-0.100000)"
fill="#000000" stroke="none">
<path d="M0 3750 l0 -3750 5000 0 5000 0 0 3750 0 3750 -5000 0 -5000 0 0
-3750z m6390 2576 c1005 -155 1822 -862 2114 -1829 143 -472 143 -1022 0
-1494 -293 -969 -1110 -1675 -2119 -1829 -151 -23 -570 -26 -710 -6 -582 88
-1070 325 -1474 717 -116 112 -281 304 -281 325 0 6 15 10 33 10 31 0 42 -10
123 -106 412 -492 998 -805 1659 -885 129 -15 432 -15 560 0 866 106 1597 618
1984 1391 358 717 358 1543 0 2260 -135 270 -298 490 -515 699 -303 292 -679
506 -1078 616 -664 182 -1379 85 -1971 -266 -232 -138 -512 -379 -669 -576
-52 -65 -62 -73 -92 -73 -19 0 -34 4 -34 9 0 18 124 167 229 275 412 422 958
696 1526 765 50 6 104 13 120 15 74 10 496 -3 595 -18z m-3605 -1715 c182
-253 333 -459 337 -458 4 1 154 207 334 457 179 250 335 464 345 475 19 19 19
6 19 -703 l0 -723 -112 3 -113 3 0 411 0 412 -33 -46 c-18 -26 -124 -178 -235
-339 -190 -274 -203 -291 -219 -275 -9 9 -119 161 -245 337 l-228 320 0 -410
0 -410 -102 -3 -103 -3 0 723 c1 571 3 719 13 706 7 -9 161 -224 342 -477z
m3046 230 c51 -52 36 -131 -32 -167 -64 -32 -144 22 -144 97 0 89 113 133 176
70z m-511 -206 l0 -175 110 0 111 0 -3 -72 -3 -73 -107 -3 -108 -3 0 -324 0
-325 -80 0 -80 0 0 325 0 325 -70 0 -70 0 0 75 0 75 70 0 70 0 0 175 0 175 80
0 80 0 0 -175z m-764 -176 c32 -12 77 -40 101 -62 l43 -40 0 36 c0 64 4 67 86
67 l74 0 0 -400 0 -400 -80 0 -80 0 0 51 0 51 -30 -30 c-74 -74 -208 -106
-332 -78 -149 33 -259 131 -307 274 -64 190 28 415 209 507 97 50 221 59 316
24z m2027 -9 c27 -13 64 -37 82 -55 32 -29 34 -30 39 -11 3 12 6 33 6 49 l0
27 80 0 80 0 0 -400 0 -400 -85 0 -85 0 0 45 0 45 -44 -34 c-113 -86 -278 -95
-419 -24 -158 79 -251 261 -219 430 29 157 135 284 283 338 76 28 213 24 282
-10z m827 14 c48 -14 130 -59 130 -72 0 -6 -79 -112 -84 -112 -2 0 -18 8 -37
18 -42 21 -148 23 -172 3 -25 -20 -22 -83 4 -107 11 -10 73 -46 137 -79 139
-72 172 -109 180 -200 9 -111 -36 -193 -132 -240 -108 -53 -309 -24 -380 54
-19 20 -18 21 28 76 26 30 49 55 51 55 2 0 27 -11 57 -25 35 -17 71 -25 106
-25 46 0 58 4 83 29 58 59 33 96 -115 166 -153 72 -206 134 -206 237 0 175
162 278 350 222z m-1570 -404 l0 -401 -82 3 -83 3 -3 398 -2 397 85 0 85 0 0
-400z m-162 -1117 l2 -353 -45 0 -45 0 0 333 c0 182 -3 342 -6 355 -6 22 -5
23 42 20 l49 -3 3 -352z m-2811 -13 c62 -179 113 -328 113 -332 0 -5 -22 -8
-49 -8 l-49 0 -38 110 -38 110 -111 0 -111 0 -35 -107 -35 -108 -42 -3 c-23
-2 -42 -1 -42 1 0 6 207 603 222 640 10 26 15 28 56 25 l46 -3 113 -325z m313
-5 l0 -335 -45 0 -45 0 0 304 c0 167 -3 318 -6 335 l-6 31 51 0 51 0 0 -335z
m762 302 c67 -33 121 -91 142 -155 52 -151 15 -330 -86 -416 -62 -53 -117 -66
-285 -66 l-143 0 0 319 c0 176 -3 327 -6 336 -6 15 7 16 157 13 156 -3 167 -4
221 -31z m565 -193 c44 -32 74 -100 71 -159 l-3 -50 -147 -3 -147 -3 6 -37
c14 -87 59 -132 135 -132 27 0 64 6 83 14 33 14 36 14 50 -6 19 -28 8 -42 -50
-64 -65 -24 -161 -16 -213 18 -79 53 -115 184 -81 297 15 50 66 112 111 135
45 23 148 18 185 -10z m890 0 c44 -32 74 -100 71 -159 l-3 -50 -147 -3 -147
-3 6 -37 c14 -87 59 -132 135 -132 27 0 64 6 83 14 33 14 36 14 50 -6 19 -28
8 -42 -50 -64 -66 -25 -161 -16 -215 20 -78 51 -113 182 -80 294 16 51 67 113
112 136 45 23 148 18 185 -10z m714 3 c66 -35 101 -98 107 -192 10 -156 -76
-265 -207 -265 -86 0 -141 34 -184 115 -32 59 -31 183 2 244 59 113 176 153
282 98z m293 11 c16 -54 15 -53 39 -30 66 62 180 54 239 -16 45 -54 61 -112
56 -201 -4 -66 -10 -89 -34 -128 -50 -82 -152 -115 -241 -78 -19 8 -37 15 -39
15 -8 0 -4 -157 5 -188 l10 -32 -49 0 -49 0 -4 308 c-2 169 -7 317 -11 329 -7
19 -4 22 26 26 18 2 37 5 41 5 4 1 9 -4 11 -10z m726 -7 c63 -33 104 -126 86
-196 l-6 -25 -145 0 c-95 0 -145 -4 -145 -11 0 -42 26 -102 57 -129 28 -25 42
-30 84 -30 27 0 65 7 85 15 34 14 35 14 46 -11 11 -22 9 -28 -7 -40 -51 -37
-166 -44 -232 -15 -54 25 -99 87 -113 157 -25 120 31 248 125 290 44 19 124
17 165 -5z m281 -21 l12 -39 33 28 c32 29 100 58 111 48 3 -3 1 -22 -3 -42 -8
-31 -15 -39 -49 -51 -22 -7 -52 -27 -67 -44 -28 -30 -28 -31 -28 -180 l0 -150
-40 0 -40 0 0 183 c0 128 -4 198 -14 230 l-14 46 32 4 c17 2 36 5 43 5 7 1 18
-16 24 -38z m-2625 -140 l58 -170 59 170 60 170 39 0 c32 0 39 -3 34 -15 -3
-9 -38 -107 -77 -218 -39 -111 -75 -210 -80 -219 -6 -12 -22 -18 -43 -18 -31
0 -35 4 -49 43 -90 256 -147 420 -147 423 0 2 20 4 44 4 l43 0 59 -170z"/>
<path d="M4345 4308 c-32 -11 -92 -52 -113 -78 -39 -48 -56 -96 -55 -165 0
-111 44 -185 137 -232 69 -35 159 -36 234 -3 162 70 203 292 76 415 -25 25
-64 50 -91 59 -52 18 -143 20 -188 4z"/>
<path d="M6324 4296 c-59 -27 -116 -90 -132 -145 -55 -181 62 -344 248 -345
196 -1 321 200 233 375 -64 124 -219 176 -349 115z"/>
<path d="M2655 3018 c-21 -62 -40 -119 -43 -125 -3 -10 18 -13 83 -13 69 0 86
3 82 13 -3 8 -20 61 -37 118 -18 57 -35 108 -40 112 -4 5 -25 -42 -45 -105z"/>
<path d="M3670 2931 l0 -271 78 0 c137 0 192 29 232 122 18 41 24 73 24 138 1
98 -13 147 -58 198 -42 48 -95 69 -193 78 l-83 7 0 -272z"/>
<path d="M4346 2979 c-26 -20 -56 -68 -56 -89 0 -6 37 -10 100 -10 l100 0 0
31 c0 41 -47 89 -88 89 -16 0 -41 -9 -56 -21z"/>
<path d="M5236 2979 c-26 -20 -56 -68 -56 -89 0 -6 37 -10 100 -10 l100 0 0
31 c0 41 -47 89 -88 89 -16 0 -41 -9 -56 -21z"/>
<path d="M5946 2968 c-41 -41 -60 -104 -53 -175 10 -98 55 -153 124 -153 65 0
112 73 113 174 0 115 -34 173 -109 183 -36 5 -44 2 -75 -29z"/>
<path d="M6490 2983 c-8 -3 -27 -17 -42 -31 -26 -24 -28 -32 -28 -101 1 -95
12 -146 40 -176 49 -52 134 -35 169 34 39 75 24 209 -27 254 -21 19 -86 31
-112 20z"/>
<path d="M6988 2982 c-26 -15 -58 -66 -58 -91 0 -7 34 -11 101 -11 l102 0 -6
38 c-12 70 -79 102 -139 64z"/>
</g>
</svg>
